<mxfile host="app.diagrams.net" modified="2021-06-04T12:59:15.162Z" agent="5.0 (Windows NT 10.0; Win64; x64) AppleWebKit/537.36 (KHTML, like Gecko) Chrome/91.0.4472.77 Safari/537.36" etag="PUZwOnkiH8-B5vED71L8" version="14.7.3" type="github">
  <diagram id="PrOeGl1aKC9d1Yx27yRs" name="Page-1">
    <mxGraphModel dx="2141" dy="3409" grid="1" gridSize="10" guides="1" tooltips="1" connect="1" arrows="1" fold="1" page="1" pageScale="1" pageWidth="827" pageHeight="1169" math="0" shadow="0">
      <root>
        <mxCell id="0" />
        <mxCell id="1" parent="0" />
        <mxCell id="kRj8JRXJs3qqaTeKIWMe-59" style="edgeStyle=orthogonalEdgeStyle;rounded=0;orthogonalLoop=1;jettySize=auto;html=1;exitX=0.5;exitY=1;exitDx=0;exitDy=0;entryX=0.5;entryY=0;entryDx=0;entryDy=0;endArrow=none;endFill=0;" edge="1" parent="1" source="kRj8JRXJs3qqaTeKIWMe-1" target="kRj8JRXJs3qqaTeKIWMe-46">
          <mxGeometry relative="1" as="geometry" />
        </mxCell>
        <mxCell id="kRj8JRXJs3qqaTeKIWMe-1" value="ASIGNATURAS" style="rounded=0;whiteSpace=wrap;html=1;" vertex="1" parent="1">
          <mxGeometry x="340" y="370" width="120" height="60" as="geometry" />
        </mxCell>
        <mxCell id="kRj8JRXJs3qqaTeKIWMe-12" style="edgeStyle=orthogonalEdgeStyle;rounded=0;orthogonalLoop=1;jettySize=auto;html=1;exitX=0;exitY=0.5;exitDx=0;exitDy=0;entryX=1;entryY=0.5;entryDx=0;entryDy=0;endArrow=none;endFill=0;" edge="1" parent="1" source="kRj8JRXJs3qqaTeKIWMe-2" target="kRj8JRXJs3qqaTeKIWMe-3">
          <mxGeometry relative="1" as="geometry" />
        </mxCell>
        <mxCell id="kRj8JRXJs3qqaTeKIWMe-13" style="edgeStyle=orthogonalEdgeStyle;rounded=0;orthogonalLoop=1;jettySize=auto;html=1;exitX=1;exitY=0.5;exitDx=0;exitDy=0;entryX=0;entryY=0.5;entryDx=0;entryDy=0;endArrow=none;endFill=0;" edge="1" parent="1" source="kRj8JRXJs3qqaTeKIWMe-2" target="kRj8JRXJs3qqaTeKIWMe-1">
          <mxGeometry relative="1" as="geometry" />
        </mxCell>
        <mxCell id="kRj8JRXJs3qqaTeKIWMe-2" value="MATRICULA" style="rhombus;whiteSpace=wrap;html=1;" vertex="1" parent="1">
          <mxGeometry x="140" y="360" width="80" height="80" as="geometry" />
        </mxCell>
        <mxCell id="kRj8JRXJs3qqaTeKIWMe-3" value="ALUMNO" style="rounded=0;whiteSpace=wrap;html=1;" vertex="1" parent="1">
          <mxGeometry x="-120" y="370" width="120" height="60" as="geometry" />
        </mxCell>
        <mxCell id="kRj8JRXJs3qqaTeKIWMe-51" style="edgeStyle=orthogonalEdgeStyle;rounded=0;orthogonalLoop=1;jettySize=auto;html=1;exitX=1;exitY=0.5;exitDx=0;exitDy=0;entryX=0;entryY=0.5;entryDx=0;entryDy=0;endArrow=none;endFill=0;" edge="1" parent="1" source="kRj8JRXJs3qqaTeKIWMe-4" target="kRj8JRXJs3qqaTeKIWMe-3">
          <mxGeometry relative="1" as="geometry" />
        </mxCell>
        <mxCell id="kRj8JRXJs3qqaTeKIWMe-4" value="&lt;u&gt;DNI&lt;/u&gt;" style="ellipse;whiteSpace=wrap;html=1;" vertex="1" parent="1">
          <mxGeometry x="-320" y="140" width="120" height="50" as="geometry" />
        </mxCell>
        <mxCell id="kRj8JRXJs3qqaTeKIWMe-57" style="edgeStyle=orthogonalEdgeStyle;rounded=0;orthogonalLoop=1;jettySize=auto;html=1;exitX=1;exitY=0.5;exitDx=0;exitDy=0;entryX=0;entryY=0.5;entryDx=0;entryDy=0;endArrow=none;endFill=0;" edge="1" parent="1" source="kRj8JRXJs3qqaTeKIWMe-5" target="kRj8JRXJs3qqaTeKIWMe-3">
          <mxGeometry relative="1" as="geometry" />
        </mxCell>
        <mxCell id="kRj8JRXJs3qqaTeKIWMe-5" value="APELLIDOS" style="ellipse;whiteSpace=wrap;html=1;" vertex="1" parent="1">
          <mxGeometry x="-320" y="550" width="120" height="50" as="geometry" />
        </mxCell>
        <mxCell id="kRj8JRXJs3qqaTeKIWMe-58" style="edgeStyle=orthogonalEdgeStyle;rounded=0;orthogonalLoop=1;jettySize=auto;html=1;exitX=1;exitY=0.5;exitDx=0;exitDy=0;entryX=0;entryY=0.5;entryDx=0;entryDy=0;endArrow=none;endFill=0;" edge="1" parent="1" source="kRj8JRXJs3qqaTeKIWMe-6" target="kRj8JRXJs3qqaTeKIWMe-3">
          <mxGeometry relative="1" as="geometry" />
        </mxCell>
        <mxCell id="kRj8JRXJs3qqaTeKIWMe-6" value="NOMBRES" style="ellipse;whiteSpace=wrap;html=1;" vertex="1" parent="1">
          <mxGeometry x="-320" y="610" width="120" height="50" as="geometry" />
        </mxCell>
        <mxCell id="kRj8JRXJs3qqaTeKIWMe-52" style="edgeStyle=orthogonalEdgeStyle;rounded=0;orthogonalLoop=1;jettySize=auto;html=1;exitX=1;exitY=0.5;exitDx=0;exitDy=0;entryX=0;entryY=0.5;entryDx=0;entryDy=0;endArrow=none;endFill=0;" edge="1" parent="1" source="kRj8JRXJs3qqaTeKIWMe-7" target="kRj8JRXJs3qqaTeKIWMe-3">
          <mxGeometry relative="1" as="geometry" />
        </mxCell>
        <mxCell id="kRj8JRXJs3qqaTeKIWMe-7" value="DIRECCION" style="ellipse;whiteSpace=wrap;html=1;" vertex="1" parent="1">
          <mxGeometry x="-320" y="200" width="120" height="50" as="geometry" />
        </mxCell>
        <mxCell id="kRj8JRXJs3qqaTeKIWMe-53" style="edgeStyle=orthogonalEdgeStyle;rounded=0;orthogonalLoop=1;jettySize=auto;html=1;exitX=1;exitY=0.5;exitDx=0;exitDy=0;entryX=0;entryY=0.5;entryDx=0;entryDy=0;endArrow=none;endFill=0;" edge="1" parent="1" source="kRj8JRXJs3qqaTeKIWMe-8" target="kRj8JRXJs3qqaTeKIWMe-3">
          <mxGeometry relative="1" as="geometry" />
        </mxCell>
        <mxCell id="kRj8JRXJs3qqaTeKIWMe-8" value="TELEFONO" style="ellipse;whiteSpace=wrap;html=1;" vertex="1" parent="1">
          <mxGeometry x="-320" y="260" width="120" height="50" as="geometry" />
        </mxCell>
        <mxCell id="kRj8JRXJs3qqaTeKIWMe-54" style="edgeStyle=orthogonalEdgeStyle;rounded=0;orthogonalLoop=1;jettySize=auto;html=1;exitX=1;exitY=0.5;exitDx=0;exitDy=0;entryX=0;entryY=0.5;entryDx=0;entryDy=0;endArrow=none;endFill=0;" edge="1" parent="1" source="kRj8JRXJs3qqaTeKIWMe-9" target="kRj8JRXJs3qqaTeKIWMe-3">
          <mxGeometry relative="1" as="geometry" />
        </mxCell>
        <mxCell id="kRj8JRXJs3qqaTeKIWMe-9" value="FECHA NACIMIENTO" style="ellipse;whiteSpace=wrap;html=1;" vertex="1" parent="1">
          <mxGeometry x="-320" y="320" width="120" height="50" as="geometry" />
        </mxCell>
        <mxCell id="kRj8JRXJs3qqaTeKIWMe-56" style="edgeStyle=orthogonalEdgeStyle;rounded=0;orthogonalLoop=1;jettySize=auto;html=1;exitX=1;exitY=0.5;exitDx=0;exitDy=0;entryX=0;entryY=0.5;entryDx=0;entryDy=0;endArrow=none;endFill=0;" edge="1" parent="1" source="kRj8JRXJs3qqaTeKIWMe-10" target="kRj8JRXJs3qqaTeKIWMe-3">
          <mxGeometry relative="1" as="geometry" />
        </mxCell>
        <mxCell id="kRj8JRXJs3qqaTeKIWMe-10" value="POBLACION" style="ellipse;whiteSpace=wrap;html=1;" vertex="1" parent="1">
          <mxGeometry x="-320" y="490" width="120" height="50" as="geometry" />
        </mxCell>
        <mxCell id="kRj8JRXJs3qqaTeKIWMe-55" style="edgeStyle=orthogonalEdgeStyle;rounded=0;orthogonalLoop=1;jettySize=auto;html=1;exitX=1;exitY=0.5;exitDx=0;exitDy=0;entryX=0;entryY=0.5;entryDx=0;entryDy=0;endArrow=none;endFill=0;" edge="1" parent="1" source="kRj8JRXJs3qqaTeKIWMe-11" target="kRj8JRXJs3qqaTeKIWMe-3">
          <mxGeometry relative="1" as="geometry" />
        </mxCell>
        <mxCell id="kRj8JRXJs3qqaTeKIWMe-11" value="CODIGO POSTAL" style="ellipse;whiteSpace=wrap;html=1;" vertex="1" parent="1">
          <mxGeometry x="-320" y="430" width="120" height="50" as="geometry" />
        </mxCell>
        <mxCell id="kRj8JRXJs3qqaTeKIWMe-19" style="edgeStyle=orthogonalEdgeStyle;rounded=0;orthogonalLoop=1;jettySize=auto;html=1;exitX=1;exitY=0.5;exitDx=0;exitDy=0;entryX=0;entryY=0.5;entryDx=0;entryDy=0;endArrow=none;endFill=0;" edge="1" parent="1" source="kRj8JRXJs3qqaTeKIWMe-14" target="kRj8JRXJs3qqaTeKIWMe-15">
          <mxGeometry relative="1" as="geometry" />
        </mxCell>
        <mxCell id="kRj8JRXJs3qqaTeKIWMe-20" style="edgeStyle=orthogonalEdgeStyle;rounded=0;orthogonalLoop=1;jettySize=auto;html=1;exitX=0;exitY=0.5;exitDx=0;exitDy=0;entryX=1;entryY=0.5;entryDx=0;entryDy=0;endArrow=none;endFill=0;" edge="1" parent="1" source="kRj8JRXJs3qqaTeKIWMe-14" target="kRj8JRXJs3qqaTeKIWMe-1">
          <mxGeometry relative="1" as="geometry" />
        </mxCell>
        <mxCell id="kRj8JRXJs3qqaTeKIWMe-14" value="IMPARTE" style="rhombus;whiteSpace=wrap;html=1;" vertex="1" parent="1">
          <mxGeometry x="600" y="360" width="80" height="80" as="geometry" />
        </mxCell>
        <mxCell id="kRj8JRXJs3qqaTeKIWMe-69" style="edgeStyle=orthogonalEdgeStyle;rounded=0;orthogonalLoop=1;jettySize=auto;html=1;exitX=1;exitY=0.5;exitDx=0;exitDy=0;entryX=0;entryY=0.5;entryDx=0;entryDy=0;endArrow=none;endFill=0;" edge="1" parent="1" source="kRj8JRXJs3qqaTeKIWMe-15" target="kRj8JRXJs3qqaTeKIWMe-16">
          <mxGeometry relative="1" as="geometry" />
        </mxCell>
        <mxCell id="kRj8JRXJs3qqaTeKIWMe-15" value="AULAS" style="rounded=0;whiteSpace=wrap;html=1;" vertex="1" parent="1">
          <mxGeometry x="760" y="370" width="120" height="60" as="geometry" />
        </mxCell>
        <mxCell id="kRj8JRXJs3qqaTeKIWMe-16" value="&lt;u&gt;CODIGO&lt;/u&gt;" style="ellipse;whiteSpace=wrap;html=1;" vertex="1" parent="1">
          <mxGeometry x="980" y="375" width="120" height="50" as="geometry" />
        </mxCell>
        <mxCell id="kRj8JRXJs3qqaTeKIWMe-70" style="edgeStyle=orthogonalEdgeStyle;rounded=0;orthogonalLoop=1;jettySize=auto;html=1;exitX=0;exitY=0.5;exitDx=0;exitDy=0;entryX=1;entryY=0.5;entryDx=0;entryDy=0;endArrow=none;endFill=0;" edge="1" parent="1" source="kRj8JRXJs3qqaTeKIWMe-17" target="kRj8JRXJs3qqaTeKIWMe-15">
          <mxGeometry relative="1" as="geometry" />
        </mxCell>
        <mxCell id="kRj8JRXJs3qqaTeKIWMe-17" value="PISO" style="ellipse;whiteSpace=wrap;html=1;" vertex="1" parent="1">
          <mxGeometry x="980" y="320" width="120" height="50" as="geometry" />
        </mxCell>
        <mxCell id="kRj8JRXJs3qqaTeKIWMe-71" style="edgeStyle=orthogonalEdgeStyle;rounded=0;orthogonalLoop=1;jettySize=auto;html=1;exitX=0;exitY=0.5;exitDx=0;exitDy=0;entryX=1;entryY=0.5;entryDx=0;entryDy=0;endArrow=none;endFill=0;" edge="1" parent="1" source="kRj8JRXJs3qqaTeKIWMe-18" target="kRj8JRXJs3qqaTeKIWMe-15">
          <mxGeometry relative="1" as="geometry" />
        </mxCell>
        <mxCell id="kRj8JRXJs3qqaTeKIWMe-18" value="NUMERO DE PUPITRES" style="ellipse;whiteSpace=wrap;html=1;" vertex="1" parent="1">
          <mxGeometry x="980" y="430" width="120" height="50" as="geometry" />
        </mxCell>
        <mxCell id="kRj8JRXJs3qqaTeKIWMe-27" style="edgeStyle=orthogonalEdgeStyle;rounded=0;orthogonalLoop=1;jettySize=auto;html=1;exitX=0.5;exitY=0;exitDx=0;exitDy=0;entryX=0.5;entryY=1;entryDx=0;entryDy=0;endArrow=none;endFill=0;" edge="1" parent="1" source="kRj8JRXJs3qqaTeKIWMe-21" target="kRj8JRXJs3qqaTeKIWMe-22">
          <mxGeometry relative="1" as="geometry" />
        </mxCell>
        <mxCell id="kRj8JRXJs3qqaTeKIWMe-28" style="edgeStyle=orthogonalEdgeStyle;rounded=0;orthogonalLoop=1;jettySize=auto;html=1;exitX=0.5;exitY=1;exitDx=0;exitDy=0;entryX=0.5;entryY=0;entryDx=0;entryDy=0;endArrow=none;endFill=0;" edge="1" parent="1" source="kRj8JRXJs3qqaTeKIWMe-21" target="kRj8JRXJs3qqaTeKIWMe-1">
          <mxGeometry relative="1" as="geometry" />
        </mxCell>
        <mxCell id="kRj8JRXJs3qqaTeKIWMe-21" value="IMPARTE" style="rhombus;whiteSpace=wrap;html=1;" vertex="1" parent="1">
          <mxGeometry x="360" y="150" width="80" height="80" as="geometry" />
        </mxCell>
        <mxCell id="kRj8JRXJs3qqaTeKIWMe-22" value="CURSOS" style="rounded=0;whiteSpace=wrap;html=1;" vertex="1" parent="1">
          <mxGeometry x="340" width="120" height="60" as="geometry" />
        </mxCell>
        <mxCell id="kRj8JRXJs3qqaTeKIWMe-26" style="edgeStyle=orthogonalEdgeStyle;rounded=0;orthogonalLoop=1;jettySize=auto;html=1;exitX=0.5;exitY=1;exitDx=0;exitDy=0;endArrow=none;endFill=0;" edge="1" parent="1" source="kRj8JRXJs3qqaTeKIWMe-23" target="kRj8JRXJs3qqaTeKIWMe-22">
          <mxGeometry relative="1" as="geometry" />
        </mxCell>
        <mxCell id="kRj8JRXJs3qqaTeKIWMe-23" value="TUTORES" style="rhombus;whiteSpace=wrap;html=1;" vertex="1" parent="1">
          <mxGeometry x="360" y="-200" width="80" height="80" as="geometry" />
        </mxCell>
        <mxCell id="kRj8JRXJs3qqaTeKIWMe-25" style="edgeStyle=orthogonalEdgeStyle;rounded=0;orthogonalLoop=1;jettySize=auto;html=1;exitX=0.5;exitY=1;exitDx=0;exitDy=0;endArrow=none;endFill=0;" edge="1" parent="1" source="kRj8JRXJs3qqaTeKIWMe-24" target="kRj8JRXJs3qqaTeKIWMe-23">
          <mxGeometry relative="1" as="geometry" />
        </mxCell>
        <mxCell id="kRj8JRXJs3qqaTeKIWMe-39" style="edgeStyle=orthogonalEdgeStyle;rounded=0;orthogonalLoop=1;jettySize=auto;html=1;exitX=1;exitY=0.5;exitDx=0;exitDy=0;entryX=0.5;entryY=0;entryDx=0;entryDy=0;endArrow=none;endFill=0;" edge="1" parent="1" source="kRj8JRXJs3qqaTeKIWMe-24" target="kRj8JRXJs3qqaTeKIWMe-38">
          <mxGeometry relative="1" as="geometry" />
        </mxCell>
        <mxCell id="kRj8JRXJs3qqaTeKIWMe-24" value="PROFESORES" style="rounded=0;whiteSpace=wrap;html=1;" vertex="1" parent="1">
          <mxGeometry x="340" y="-390" width="120" height="60" as="geometry" />
        </mxCell>
        <mxCell id="kRj8JRXJs3qqaTeKIWMe-74" style="edgeStyle=orthogonalEdgeStyle;rounded=0;orthogonalLoop=1;jettySize=auto;html=1;exitX=0.5;exitY=1;exitDx=0;exitDy=0;entryX=0.5;entryY=0;entryDx=0;entryDy=0;endArrow=none;endFill=0;" edge="1" parent="1" source="kRj8JRXJs3qqaTeKIWMe-30" target="kRj8JRXJs3qqaTeKIWMe-24">
          <mxGeometry relative="1" as="geometry" />
        </mxCell>
        <mxCell id="kRj8JRXJs3qqaTeKIWMe-30" value="&lt;u&gt;DNI&lt;/u&gt;" style="ellipse;whiteSpace=wrap;html=1;" vertex="1" parent="1">
          <mxGeometry x="720" y="-510" width="120" height="50" as="geometry" />
        </mxCell>
        <mxCell id="kRj8JRXJs3qqaTeKIWMe-73" style="edgeStyle=orthogonalEdgeStyle;rounded=0;orthogonalLoop=1;jettySize=auto;html=1;exitX=0.5;exitY=1;exitDx=0;exitDy=0;entryX=0.5;entryY=0;entryDx=0;entryDy=0;endArrow=none;endFill=0;" edge="1" parent="1" source="kRj8JRXJs3qqaTeKIWMe-31" target="kRj8JRXJs3qqaTeKIWMe-24">
          <mxGeometry relative="1" as="geometry" />
        </mxCell>
        <mxCell id="kRj8JRXJs3qqaTeKIWMe-31" value="APELLIDOS" style="ellipse;whiteSpace=wrap;html=1;" vertex="1" parent="1">
          <mxGeometry x="590" y="-510" width="120" height="50" as="geometry" />
        </mxCell>
        <mxCell id="kRj8JRXJs3qqaTeKIWMe-75" style="edgeStyle=orthogonalEdgeStyle;rounded=0;orthogonalLoop=1;jettySize=auto;html=1;exitX=0.5;exitY=1;exitDx=0;exitDy=0;endArrow=none;endFill=0;" edge="1" parent="1" source="kRj8JRXJs3qqaTeKIWMe-32">
          <mxGeometry relative="1" as="geometry">
            <mxPoint x="400" y="-390" as="targetPoint" />
          </mxGeometry>
        </mxCell>
        <mxCell id="kRj8JRXJs3qqaTeKIWMe-32" value="NOMBRES" style="ellipse;whiteSpace=wrap;html=1;" vertex="1" parent="1">
          <mxGeometry x="850" y="-510" width="120" height="50" as="geometry" />
        </mxCell>
        <mxCell id="kRj8JRXJs3qqaTeKIWMe-79" style="edgeStyle=orthogonalEdgeStyle;rounded=0;orthogonalLoop=1;jettySize=auto;html=1;exitX=0.5;exitY=1;exitDx=0;exitDy=0;entryX=0.5;entryY=0;entryDx=0;entryDy=0;endArrow=none;endFill=0;" edge="1" parent="1" source="kRj8JRXJs3qqaTeKIWMe-33" target="kRj8JRXJs3qqaTeKIWMe-24">
          <mxGeometry relative="1" as="geometry" />
        </mxCell>
        <mxCell id="kRj8JRXJs3qqaTeKIWMe-33" value="DIRECCION" style="ellipse;whiteSpace=wrap;html=1;" vertex="1" parent="1">
          <mxGeometry x="-170" y="-510" width="120" height="50" as="geometry" />
        </mxCell>
        <mxCell id="kRj8JRXJs3qqaTeKIWMe-78" style="edgeStyle=orthogonalEdgeStyle;rounded=0;orthogonalLoop=1;jettySize=auto;html=1;exitX=0.5;exitY=1;exitDx=0;exitDy=0;entryX=0.5;entryY=0;entryDx=0;entryDy=0;endArrow=none;endFill=0;" edge="1" parent="1" source="kRj8JRXJs3qqaTeKIWMe-34" target="kRj8JRXJs3qqaTeKIWMe-24">
          <mxGeometry relative="1" as="geometry" />
        </mxCell>
        <mxCell id="kRj8JRXJs3qqaTeKIWMe-34" value="TELEFONO" style="ellipse;whiteSpace=wrap;html=1;" vertex="1" parent="1">
          <mxGeometry x="-40" y="-510" width="120" height="50" as="geometry" />
        </mxCell>
        <mxCell id="kRj8JRXJs3qqaTeKIWMe-77" style="edgeStyle=orthogonalEdgeStyle;rounded=0;orthogonalLoop=1;jettySize=auto;html=1;exitX=0.5;exitY=1;exitDx=0;exitDy=0;entryX=0.5;entryY=0;entryDx=0;entryDy=0;endArrow=none;endFill=0;" edge="1" parent="1" source="kRj8JRXJs3qqaTeKIWMe-35" target="kRj8JRXJs3qqaTeKIWMe-24">
          <mxGeometry relative="1" as="geometry" />
        </mxCell>
        <mxCell id="kRj8JRXJs3qqaTeKIWMe-35" value="FECHA NACIMIENTO" style="ellipse;whiteSpace=wrap;html=1;" vertex="1" parent="1">
          <mxGeometry x="90" y="-510" width="120" height="50" as="geometry" />
        </mxCell>
        <mxCell id="kRj8JRXJs3qqaTeKIWMe-76" style="edgeStyle=orthogonalEdgeStyle;rounded=0;orthogonalLoop=1;jettySize=auto;html=1;exitX=0.5;exitY=1;exitDx=0;exitDy=0;entryX=0.5;entryY=0;entryDx=0;entryDy=0;endArrow=none;endFill=0;" edge="1" parent="1" source="kRj8JRXJs3qqaTeKIWMe-36" target="kRj8JRXJs3qqaTeKIWMe-24">
          <mxGeometry relative="1" as="geometry" />
        </mxCell>
        <mxCell id="kRj8JRXJs3qqaTeKIWMe-36" value="POBLACION" style="ellipse;whiteSpace=wrap;html=1;" vertex="1" parent="1">
          <mxGeometry x="220" y="-510" width="120" height="50" as="geometry" />
        </mxCell>
        <mxCell id="kRj8JRXJs3qqaTeKIWMe-72" style="edgeStyle=orthogonalEdgeStyle;rounded=0;orthogonalLoop=1;jettySize=auto;html=1;exitX=0.5;exitY=1;exitDx=0;exitDy=0;entryX=0.5;entryY=0;entryDx=0;entryDy=0;endArrow=none;endFill=0;" edge="1" parent="1" source="kRj8JRXJs3qqaTeKIWMe-37" target="kRj8JRXJs3qqaTeKIWMe-24">
          <mxGeometry relative="1" as="geometry" />
        </mxCell>
        <mxCell id="kRj8JRXJs3qqaTeKIWMe-37" value="CODIGO POSTAL" style="ellipse;whiteSpace=wrap;html=1;" vertex="1" parent="1">
          <mxGeometry x="460" y="-510" width="120" height="50" as="geometry" />
        </mxCell>
        <mxCell id="kRj8JRXJs3qqaTeKIWMe-40" style="edgeStyle=orthogonalEdgeStyle;rounded=0;orthogonalLoop=1;jettySize=auto;html=1;exitX=0.5;exitY=1;exitDx=0;exitDy=0;entryX=0.75;entryY=0;entryDx=0;entryDy=0;endArrow=none;endFill=0;" edge="1" parent="1" source="kRj8JRXJs3qqaTeKIWMe-38" target="kRj8JRXJs3qqaTeKIWMe-1">
          <mxGeometry relative="1" as="geometry" />
        </mxCell>
        <mxCell id="kRj8JRXJs3qqaTeKIWMe-38" value="IMPARTE" style="rhombus;whiteSpace=wrap;html=1;" vertex="1" parent="1">
          <mxGeometry x="630" y="-10" width="80" height="80" as="geometry" />
        </mxCell>
        <mxCell id="kRj8JRXJs3qqaTeKIWMe-60" style="edgeStyle=orthogonalEdgeStyle;rounded=0;orthogonalLoop=1;jettySize=auto;html=1;exitX=0.5;exitY=0;exitDx=0;exitDy=0;endArrow=none;endFill=0;" edge="1" parent="1" source="kRj8JRXJs3qqaTeKIWMe-41">
          <mxGeometry relative="1" as="geometry">
            <mxPoint x="400" y="430" as="targetPoint" />
          </mxGeometry>
        </mxCell>
        <mxCell id="kRj8JRXJs3qqaTeKIWMe-41" value="NOMBRE" style="ellipse;whiteSpace=wrap;html=1;" vertex="1" parent="1">
          <mxGeometry x="470" y="500" width="120" height="50" as="geometry" />
        </mxCell>
        <mxCell id="kRj8JRXJs3qqaTeKIWMe-64" style="edgeStyle=orthogonalEdgeStyle;rounded=0;orthogonalLoop=1;jettySize=auto;html=1;exitX=0.5;exitY=0;exitDx=0;exitDy=0;entryX=0.5;entryY=1;entryDx=0;entryDy=0;endArrow=none;endFill=0;" edge="1" parent="1" source="kRj8JRXJs3qqaTeKIWMe-42" target="kRj8JRXJs3qqaTeKIWMe-1">
          <mxGeometry relative="1" as="geometry" />
        </mxCell>
        <mxCell id="kRj8JRXJs3qqaTeKIWMe-42" value="NUMERO DE HORAS" style="ellipse;whiteSpace=wrap;html=1;" vertex="1" parent="1">
          <mxGeometry x="600" y="500" width="120" height="50" as="geometry" />
        </mxCell>
        <mxCell id="kRj8JRXJs3qqaTeKIWMe-62" style="edgeStyle=orthogonalEdgeStyle;rounded=0;orthogonalLoop=1;jettySize=auto;html=1;exitX=0.5;exitY=0;exitDx=0;exitDy=0;entryX=0.5;entryY=1;entryDx=0;entryDy=0;endArrow=none;endFill=0;" edge="1" parent="1" source="kRj8JRXJs3qqaTeKIWMe-43" target="kRj8JRXJs3qqaTeKIWMe-1">
          <mxGeometry relative="1" as="geometry" />
        </mxCell>
        <mxCell id="kRj8JRXJs3qqaTeKIWMe-43" value="&lt;u&gt;CODIGO DE ASIGNATURA&lt;/u&gt;" style="ellipse;whiteSpace=wrap;html=1;" vertex="1" parent="1">
          <mxGeometry x="80" y="500" width="120" height="50" as="geometry" />
        </mxCell>
        <mxCell id="kRj8JRXJs3qqaTeKIWMe-65" style="edgeStyle=orthogonalEdgeStyle;rounded=0;orthogonalLoop=1;jettySize=auto;html=1;exitX=0.5;exitY=0;exitDx=0;exitDy=0;entryX=0.5;entryY=1;entryDx=0;entryDy=0;endArrow=none;endFill=0;" edge="1" parent="1" source="kRj8JRXJs3qqaTeKIWMe-44" target="kRj8JRXJs3qqaTeKIWMe-1">
          <mxGeometry relative="1" as="geometry" />
        </mxCell>
        <mxCell id="kRj8JRXJs3qqaTeKIWMe-44" value="INCIDENCIAS" style="ellipse;whiteSpace=wrap;html=1;" vertex="1" parent="1">
          <mxGeometry x="730" y="500" width="120" height="50" as="geometry" />
        </mxCell>
        <mxCell id="kRj8JRXJs3qqaTeKIWMe-66" style="edgeStyle=orthogonalEdgeStyle;rounded=0;orthogonalLoop=1;jettySize=auto;html=1;exitX=0.5;exitY=0;exitDx=0;exitDy=0;entryX=0.5;entryY=1;entryDx=0;entryDy=0;endArrow=none;endFill=0;" edge="1" parent="1" source="kRj8JRXJs3qqaTeKIWMe-45" target="kRj8JRXJs3qqaTeKIWMe-1">
          <mxGeometry relative="1" as="geometry" />
        </mxCell>
        <mxCell id="kRj8JRXJs3qqaTeKIWMe-45" value="NOTA DEL ALUMNO" style="ellipse;whiteSpace=wrap;html=1;" vertex="1" parent="1">
          <mxGeometry x="860" y="500" width="120" height="50" as="geometry" />
        </mxCell>
        <mxCell id="kRj8JRXJs3qqaTeKIWMe-46" value="HORA" style="ellipse;whiteSpace=wrap;html=1;" vertex="1" parent="1">
          <mxGeometry x="340" y="500" width="120" height="50" as="geometry" />
        </mxCell>
        <mxCell id="kRj8JRXJs3qqaTeKIWMe-63" style="edgeStyle=orthogonalEdgeStyle;rounded=0;orthogonalLoop=1;jettySize=auto;html=1;exitX=0.5;exitY=0;exitDx=0;exitDy=0;entryX=0.5;entryY=1;entryDx=0;entryDy=0;endArrow=none;endFill=0;" edge="1" parent="1" source="kRj8JRXJs3qqaTeKIWMe-47" target="kRj8JRXJs3qqaTeKIWMe-1">
          <mxGeometry relative="1" as="geometry" />
        </mxCell>
        <mxCell id="kRj8JRXJs3qqaTeKIWMe-47" value="MES" style="ellipse;whiteSpace=wrap;html=1;" vertex="1" parent="1">
          <mxGeometry x="-50" y="500" width="120" height="50" as="geometry" />
        </mxCell>
        <mxCell id="kRj8JRXJs3qqaTeKIWMe-61" style="edgeStyle=orthogonalEdgeStyle;rounded=0;orthogonalLoop=1;jettySize=auto;html=1;exitX=0.5;exitY=0;exitDx=0;exitDy=0;entryX=0.5;entryY=1;entryDx=0;entryDy=0;endArrow=none;endFill=0;" edge="1" parent="1" source="kRj8JRXJs3qqaTeKIWMe-48" target="kRj8JRXJs3qqaTeKIWMe-1">
          <mxGeometry relative="1" as="geometry" />
        </mxCell>
        <mxCell id="kRj8JRXJs3qqaTeKIWMe-48" value="DIA" style="ellipse;whiteSpace=wrap;html=1;" vertex="1" parent="1">
          <mxGeometry x="210" y="500" width="120" height="50" as="geometry" />
        </mxCell>
        <mxCell id="kRj8JRXJs3qqaTeKIWMe-68" style="edgeStyle=orthogonalEdgeStyle;rounded=0;orthogonalLoop=1;jettySize=auto;html=1;exitX=1;exitY=0.5;exitDx=0;exitDy=0;entryX=0;entryY=0.5;entryDx=0;entryDy=0;endArrow=none;endFill=0;" edge="1" parent="1" source="kRj8JRXJs3qqaTeKIWMe-49" target="kRj8JRXJs3qqaTeKIWMe-22">
          <mxGeometry relative="1" as="geometry" />
        </mxCell>
        <mxCell id="kRj8JRXJs3qqaTeKIWMe-49" value="&lt;u&gt;CODIGO&lt;/u&gt;" style="ellipse;whiteSpace=wrap;html=1;" vertex="1" parent="1">
          <mxGeometry x="180" y="60" width="120" height="50" as="geometry" />
        </mxCell>
        <mxCell id="kRj8JRXJs3qqaTeKIWMe-67" style="edgeStyle=orthogonalEdgeStyle;rounded=0;orthogonalLoop=1;jettySize=auto;html=1;exitX=1;exitY=0.5;exitDx=0;exitDy=0;entryX=0;entryY=0.5;entryDx=0;entryDy=0;endArrow=none;endFill=0;" edge="1" parent="1" source="kRj8JRXJs3qqaTeKIWMe-50" target="kRj8JRXJs3qqaTeKIWMe-22">
          <mxGeometry relative="1" as="geometry" />
        </mxCell>
        <mxCell id="kRj8JRXJs3qqaTeKIWMe-50" value="NOMBRE" style="ellipse;whiteSpace=wrap;html=1;" vertex="1" parent="1">
          <mxGeometry x="180" y="-50" width="120" height="50" as="geometry" />
        </mxCell>
        <mxCell id="kRj8JRXJs3qqaTeKIWMe-80" value="M:M" style="text;html=1;strokeColor=none;fillColor=none;align=center;verticalAlign=middle;whiteSpace=wrap;rounded=0;" vertex="1" parent="1">
          <mxGeometry x="160" y="335" width="40" height="20" as="geometry" />
        </mxCell>
        <mxCell id="kRj8JRXJs3qqaTeKIWMe-81" value="M:M" style="text;html=1;strokeColor=none;fillColor=none;align=center;verticalAlign=middle;whiteSpace=wrap;rounded=0;" vertex="1" parent="1">
          <mxGeometry x="620" y="330" width="40" height="20" as="geometry" />
        </mxCell>
        <mxCell id="kRj8JRXJs3qqaTeKIWMe-82" value="1:M" style="text;html=1;strokeColor=none;fillColor=none;align=center;verticalAlign=middle;whiteSpace=wrap;rounded=0;" vertex="1" parent="1">
          <mxGeometry x="320" y="180" width="40" height="20" as="geometry" />
        </mxCell>
        <mxCell id="kRj8JRXJs3qqaTeKIWMe-83" value="1:M" style="text;html=1;strokeColor=none;fillColor=none;align=center;verticalAlign=middle;whiteSpace=wrap;rounded=0;" vertex="1" parent="1">
          <mxGeometry x="720" y="20" width="40" height="20" as="geometry" />
        </mxCell>
        <mxCell id="kRj8JRXJs3qqaTeKIWMe-84" value="1:1" style="text;html=1;strokeColor=none;fillColor=none;align=center;verticalAlign=middle;whiteSpace=wrap;rounded=0;" vertex="1" parent="1">
          <mxGeometry x="310" y="-170" width="40" height="20" as="geometry" />
        </mxCell>
      </root>
    </mxGraphModel>
  </diagram>
</mxfile>
